<?xml version="1.0" standalone="no"?>
<!DOCTYPE svg PUBLIC "-//W3C//DTD SVG 20010904//EN"
 "http://www.w3.org/TR/2001/REC-SVG-20010904/DTD/svg10.dtd">
<svg version="1.0" xmlns="http://www.w3.org/2000/svg"
 width="736.000000pt" height="552.000000pt" viewBox="0 0 736.000000 552.000000"
 preserveAspectRatio="xMidYMid meet">

<g transform="translate(0.000000,552.000000) scale(0.100000,-0.100000)"
fill="#000000" stroke="none">
<path d="M0 2760 l0 -2760 3680 0 3680 0 0 2760 0 2760 -3680 0 -3680 0 0
-2760z m4425 1773 c-28 -334 -47 -447 -97 -576 -77 -201 -253 -393 -564 -619
-64 -46 -90 -60 -87 -47 3 10 12 19 20 19 12 0 12 3 -2 16 -18 19 -17 19 -37
-20 l-16 -30 -7 45 c-10 65 -15 80 -28 78 -28 -3 -44 2 -68 24 -16 16 -42 26
-74 29 -33 4 -55 13 -66 27 -15 18 -21 20 -45 10 -23 -8 -26 -12 -14 -20 12
-8 10 -9 -6 -5 -21 6 -68 -33 -117 -97 -12 -16 -39 -50 -59 -75 -21 -26 -38
-51 -38 -56 0 -5 -6 -17 -14 -25 -8 -9 -41 -69 -75 -134 -34 -65 -63 -113 -66
-105 -3 8 -24 14 -53 16 -36 1 -52 8 -69 27 -12 14 -30 25 -39 25 -16 0 -79
26 -126 51 -10 5 -43 9 -73 9 -46 0 -55 -3 -55 -17 -1 -12 -6 -7 -15 12 l-13
30 -2 -30 c-1 -16 -4 -24 -7 -16 -8 21 15 117 50 201 143 349 510 657 1062
890 329 139 441 193 589 280 47 28 112 73 143 100 32 27 62 49 66 49 4 1 5
-29 2 -66z m-800 -1303 c-3 -5 -12 -10 -18 -10 -7 0 -6 4 3 10 19 12 23 12 15
0z m481 -404 c-5 -20 -2 -23 18 -21 14 2 27 -3 30 -10 2 -7 23 -16 45 -20 27
-4 41 -12 41 -22 0 -12 10 -14 45 -11 25 2 45 0 45 -4 0 -4 9 -9 19 -13 23 -7
35 -35 21 -49 -5 -5 -10 -17 -10 -26 0 -21 -57 -151 -102 -231 -51 -90 -114
-174 -192 -255 -69 -71 -74 -78 -54 -72 7 3 19 -1 26 -9 21 -21 41 -16 36 10
-4 21 -4 21 5 1 7 -17 17 -20 53 -18 112 7 188 18 188 26 0 5 13 7 30 3 17 -4
36 -2 43 3 13 10 20 11 83 15 22 1 52 10 65 19 37 24 97 39 102 25 2 -6 6 -4
9 5 6 13 1 15 -25 11 -27 -4 -29 -3 -18 11 8 9 18 16 24 16 6 0 19 8 30 18 20
16 20 16 13 -2 -7 -20 -6 -20 14 -1 18 16 20 17 14 2 -3 -9 -2 -17 4 -17 12 0
23 25 18 43 -1 6 -1 9 1 5 5 -9 24 9 41 37 6 11 12 15 12 9 0 -6 -8 -22 -18
-35 -10 -13 -24 -37 -32 -52 -7 -15 -19 -26 -26 -23 -8 3 -11 -1 -8 -9 3 -7
-2 -25 -12 -40 -13 -20 -19 -23 -26 -13 -7 9 -8 8 -4 -5 7 -21 -13 -46 -114
-147 -91 -91 -124 -120 -215 -186 -160 -117 -376 -233 -622 -335 -312 -128
-624 -296 -720 -387 l-33 -31 0 28 c0 67 22 305 37 391 19 116 63 256 105 330
86 154 244 318 482 499 255 196 341 281 456 453 32 48 60 84 64 81 3 -4 6 1 6
10 0 10 3 17 6 17 3 0 4 -11 0 -24z"/>
<path d="M3708 3338 c9 -9 15 -9 24 0 9 9 7 12 -12 12 -19 0 -21 -3 -12 -12z"/>
<path d="M2531 3158 c-1 -21 15 -32 25 -17 4 7 3 9 -4 5 -6 -3 -13 2 -15 11
-4 16 -5 16 -6 1z"/>
<path d="M2961 3024 c0 -11 3 -14 6 -6 3 7 2 16 -1 19 -3 4 -6 -2 -5 -13z"/>
<path d="M4670 2165 c-8 -9 -8 -15 -2 -15 12 0 26 19 19 26 -2 2 -10 -2 -17
-11z"/>
</g>
</svg>
